# Aspose.3D Wavefront OBJ Exporter
# Copyright 2004-2024 Aspose Pty Ltd.
# File created: 04/04/2024 05:26:11

g Node

#
# object Node
#

v -1 1 -0.25
v -1 -1 -0.25
v -1 1 0.25
v -1 -1 0.25
v 1 1 -0.25
v 1 1 0.25
v 1 -1 -0.25
v 1 -1 0.25
# 8 vertices

vn -1 0 0
vn 0 1 0
vn 1 0 0
vn 0 -1 0
vn 0 0 1
vn 0 0 -1
# 6 vertex normals

s 1
f 1//1 2//1 3//1
f 3//1 2//1 4//1
f 5//2 1//2 6//2
f 6//2 1//2 3//2
f 7//3 5//3 8//3
f 8//3 5//3 6//3
f 2//4 7//4 4//4
f 4//4 7//4 8//4
f 4//5 8//5 3//5
f 3//5 8//5 6//5
f 7//6 2//6 5//6
f 5//6 2//6 1//6
#12 polygons

