# Aspose.3D Wavefront OBJ Exporter
# Copyright 2004-2024 Aspose Pty Ltd.
# File created: 04/05/2024 01:27:16

g Straight

#
# object Straight
#

v -0.6 -0.2 -0.3
v 0.95 -0.2 -0.3
v -0.6 -0.2 -0.25
v 0.95 -0.2 -0.25
v -0.6 -0.35 -0.3
v -0.6 -0.35 -0.25
v -0.95 0 -0.3
v -0.95 0 -0.25
v -0.6 0.35 -0.3
v -0.6 0.35 -0.25
v -0.6 0.2 -0.3
v -0.6 0.2 -0.25
v 0.95 0.2 -0.3
v 0.95 0.2 -0.25
# 14 vertices

vn 0 -1 0
vn 1 0 0
vn -0.70710677 -0.70710677 0
vn -0.70710677 0.70710677 0
vn 0 1 0
vn 0 0 1
vn 0 0 -1
# 7 vertex normals

s 1
f 1//1 2//1 3//1
f 3//1 2//1 4//1
f 5//2 1//2 6//2
f 6//2 1//2 3//2
f 7//3 5//3 8//3
f 8//3 5//3 6//3
f 9//4 7//4 10//4
f 10//4 7//4 8//4
f 11//2 9//2 12//2
f 12//2 9//2 10//2
f 13//5 11//5 14//5
f 14//5 11//5 12//5
f 2//2 13//2 4//2
f 4//2 13//2 14//2
f 14//6 12//6 4//6
f 4//6 12//6 3//6
f 3//6 12//6 8//6
f 3//6 8//6 6//6
f 12//6 10//6 8//6
f 13//7 2//7 11//7
f 11//7 2//7 1//7
f 11//7 1//7 7//7
f 7//7 1//7 5//7
f 7//7 9//7 11//7
#24 polygons

