# Aspose.3D Wavefront OBJ Exporter
# Copyright 2004-2024 Aspose Pty Ltd.
# File created: 04/04/2024 07:27:44

g TowerNode

#
# object TowerNode
#

v -0.75 0.75 -0.15
v -0.75 -0.75 -0.15
v -0.85 0.85 -0.25
v -0.85 -0.85 -0.25
v 0.75 0.75 -0.15
v 0.85 0.85 -0.25
v 0.75 -0.75 -0.15
v 0.85 -0.85 -0.25
v 0.9 0.9 0.25
v 0.9 -0.9 0.25
v 0.9 0.9 -0.25
v 0.9 -0.9 -0.25
v -0.9 0.9 0.25
v -0.9 0.9 -0.25
v -0.9 -0.9 0.25
v -0.9 -0.9 -0.25
# 16 vertices

vn 0.70710677 1.3084103E-16 -0.70710677
vn 0.70710677 0 -0.70710677
vn -1.8317745E-16 -0.70710677 -0.70710677
vn -1.8038746E-16 -0.70710677 -0.70710677
vn -0.70710677 0 -0.70710677
vn -1.5700924E-16 0.70710677 -0.70710677
vn -1.8760296E-16 0.70710677 -0.70710677
vn -2.5905203E-16 -3.7007435E-17 -1
vn -2.9605948E-16 0 -1
vn 1 0 0
vn 0 1 0
vn -1 0 2.220446E-16
vn 0 -1 0
vn -2.220446E-15 0 -1
vn -1.2335812E-16 2.097088E-15 -1
vn -2.6122896E-16 -1.959217E-15 -1
vn -1.2335812E-16 -6.7846962E-15 -1
vn 6.661338E-15 0 -1
vn -2.6122896E-16 6.922567E-15 -1
vn 1.2335812E-16 0 1
# 20 vertex normals

s 1
f 1//1 2//1 3//1
f 3//2 2//2 4//2
f 5//3 1//3 6//3
f 6//4 1//4 3//4
f 7//5 5//5 8//5
f 8//5 5//5 6//5
f 2//6 7//6 4//6
f 4//7 7//7 8//7
f 1//8 5//8 2//8
f 2//9 5//9 7//9
f 9//10 10//10 11//10
f 11//10 10//10 12//10
f 13//11 9//11 14//11
f 14//11 9//11 11//11
f 15//12 13//12 16//12
f 16//12 13//12 14//12
f 10//13 15//13 12//13
f 12//13 15//13 16//13
f 4//14 16//14 3//14
f 3//14 16//14 14//14
f 3//15 14//15 11//15
f 4//16 8//16 16//16
f 16//17 8//17 12//17
f 12//18 8//18 6//18
f 12//18 6//18 11//18
f 11//19 6//19 3//19
f 15//20 10//20 13//20
f 13//20 10//20 9//20
#28 polygons

