# Aspose.3D Wavefront OBJ Exporter
# Copyright 2004-2024 Aspose Pty Ltd.
# File created: 04/04/2024 05:26:26

g Barrel

#
# object Barrel
#

v 0.7416231197 -0.1117816996 0.25
v 0.7416231197 -0.1117816996 -0.25
v 0.75 0 0.25
v 0.75 0 -0.25
v 0.7416231197 0.1117816996 0.25
v 0.7416231197 0.1117816996 -0.25
v 0.7166796043 0.2210663808 0.25
v 0.7166796043 0.2210663808 -0.25
v 0.6757266509 0.3254128043 0.25
v 0.6757266509 0.3254128043 -0.25
v 0.6196790807 0.4224900435 0.25
v 0.6196790807 0.4224900435 -0.25
v 0.5497889039 0.5101295533 0.25
v 0.5497889039 0.5101295533 -0.25
v 0.4676173514 0.5863736119 0.25
v 0.4676173514 0.5863736119 -0.25
v 0.375 0.6495190528 0.25
v 0.375 0.6495190528 -0.25
v 0.2740057683 0.6981553115 0.25
v 0.2740057683 0.6981553115 -0.25
v 0.1668907005 0.7311959341 0.25
v 0.1668907005 0.7311959341 -0.25
v 0.05604757019 0.7479028479 0.25
v 0.05604757019 0.7479028479 -0.25
v -0.05604757019 0.7479028479 0.25
v -0.05604757019 0.7479028479 -0.25
v -0.1668907005 0.7311959341 0.25
v -0.1668907005 0.7311959341 -0.25
v -0.2740057683 0.6981553115 0.25
v -0.2740057683 0.6981553115 -0.25
v -0.375 0.6495190528 0.25
v -0.375 0.6495190528 -0.25
v -0.4676173514 0.5863736119 0.25
v -0.4676173514 0.5863736119 -0.25
v -0.5497889039 0.5101295533 0.25
v -0.5497889039 0.5101295533 -0.25
v -0.6196790807 0.4224900435 0.25
v -0.6196790807 0.4224900435 -0.25
v -0.6757266509 0.3254128043 0.25
v -0.6757266509 0.3254128043 -0.25
v -0.7166796043 0.2210663808 0.25
v -0.7166796043 0.2210663808 -0.25
v -0.7416231197 0.1117816996 0.25
v -0.7416231197 0.1117816996 -0.25
v -0.75 0 0.25
v -0.75 0 -0.25
v -0.7416231197 -0.1117816996 0.25
v -0.7416231197 -0.1117816996 -0.25
v -0.7166796043 -0.2210663808 0.25
v -0.7166796043 -0.2210663808 -0.25
v -0.6757266509 -0.3254128043 0.25
v -0.6757266509 -0.3254128043 -0.25
v -0.6196790807 -0.4224900435 0.25
v -0.6196790807 -0.4224900435 -0.25
v -0.5497889039 -0.5101295533 0.25
v -0.5497889039 -0.5101295533 -0.25
v -0.4676173514 -0.5863736119 0.25
v -0.4676173514 -0.5863736119 -0.25
v -0.375 -0.6495190528 0.25
v -0.375 -0.6495190528 -0.25
v -0.2740057683 -0.6981553115 0.25
v -0.2740057683 -0.6981553115 -0.25
v -0.1668907005 -0.7311959341 0.25
v -0.1668907005 -0.7311959341 -0.25
v -0.05604757019 -0.7479028479 0.25
v -0.05604757019 -0.7479028479 -0.25
v 0.05604757019 -0.7479028479 0.25
v 0.05604757019 -0.7479028479 -0.25
v 0.1668907005 -0.7311959341 0.25
v 0.1668907005 -0.7311959341 -0.25
v 0.2740057683 -0.6981553115 0.25
v 0.2740057683 -0.6981553115 -0.25
v 0.375 -0.6495190528 0.25
v 0.375 -0.6495190528 -0.25
v 0.4676173514 -0.5863736119 0.25
v 0.4676173514 -0.5863736119 -0.25
v 0.5497889039 -0.5101295533 0.25
v 0.5497889039 -0.5101295533 -0.25
v 0.6196790807 -0.4224900435 0.25
v 0.6196790807 -0.4224900435 -0.25
v 0.6757266509 -0.3254128043 0.25
v 0.6757266509 -0.3254128043 -0.25
v 0.7166796043 -0.2210663808 0.25
v 0.7166796043 -0.2210663808 -0.25
# 84 vertices

vn 0.9972038 -0.07473009 0
vn 0.9972038 0.07473009 0
vn 0.9749279 0.22252093 0
vn 0.93087375 0.36534104 0
vn 0.8660254 0.5 0
vn 0.7818315 0.6234898 0
vn 0.68017274 0.7330519 0
vn 0.56332004 0.82623875 0
vn 0.43388373 0.90096885 0
vn 0.29475516 0.9555728 0
vn 0.14904226 0.9888308 0
vn 0 1 0
vn -0.14904226 0.9888308 0
vn -0.29475516 0.9555728 0
vn -0.43388373 0.90096885 0
vn -0.56332004 0.82623875 0
vn -0.68017274 0.7330519 0
vn -0.7818315 0.6234898 0
vn -0.8660254 0.5 0
vn -0.93087375 0.36534104 0
vn -0.9749279 0.22252093 0
vn -0.9972038 0.07473009 0
vn -0.9972038 -0.07473009 0
vn -0.9749279 -0.22252093 0
vn -0.93087375 -0.36534104 0
vn -0.8660254 -0.5 0
vn -0.7818315 -0.6234898 0
vn -0.68017274 -0.7330519 0
vn -0.56332004 -0.82623875 0
vn -0.43388373 -0.90096885 0
vn -0.29475516 -0.9555728 0
vn -0.14904226 -0.9888308 0
vn 0 -1 0
vn 0.14904226 -0.9888308 0
vn 0.29475516 -0.9555728 0
vn 0.43388373 -0.90096885 0
vn 0.56332004 -0.82623875 0
vn 0.68017274 -0.7330519 0
vn 0.7818315 -0.6234898 0
vn 0.8660254 -0.5 0
vn 0.93087375 -0.36534104 0
vn 0.9749279 -0.22252093 0
vn 0 0 1
vn 0 0 -1
# 44 vertex normals

s 1
f 1//1 2//1 3//1
f 3//1 2//1 4//1
f 3//2 4//2 5//2
f 5//2 4//2 6//2
f 5//3 6//3 7//3
f 7//3 6//3 8//3
f 7//4 8//4 9//4
f 9//4 8//4 10//4
f 9//5 10//5 11//5
f 11//5 10//5 12//5
f 11//6 12//6 13//6
f 13//6 12//6 14//6
f 13//7 14//7 15//7
f 15//7 14//7 16//7
f 15//8 16//8 17//8
f 17//8 16//8 18//8
f 17//9 18//9 19//9
f 19//9 18//9 20//9
f 19//10 20//10 21//10
f 21//10 20//10 22//10
f 21//11 22//11 23//11
f 23//11 22//11 24//11
f 23//12 24//12 25//12
f 25//12 24//12 26//12
f 25//13 26//13 27//13
f 27//13 26//13 28//13
f 27//14 28//14 29//14
f 29//14 28//14 30//14
f 29//15 30//15 31//15
f 31//15 30//15 32//15
f 31//16 32//16 33//16
f 33//16 32//16 34//16
f 33//17 34//17 35//17
f 35//17 34//17 36//17
f 35//18 36//18 37//18
f 37//18 36//18 38//18
f 37//19 38//19 39//19
f 39//19 38//19 40//19
f 39//20 40//20 41//20
f 41//20 40//20 42//20
f 41//21 42//21 43//21
f 43//21 42//21 44//21
f 43//22 44//22 45//22
f 45//22 44//22 46//22
f 45//23 46//23 47//23
f 47//23 46//23 48//23
f 47//24 48//24 49//24
f 49//24 48//24 50//24
f 49//25 50//25 51//25
f 51//25 50//25 52//25
f 51//26 52//26 53//26
f 53//26 52//26 54//26
f 53//27 54//27 55//27
f 55//27 54//27 56//27
f 55//28 56//28 57//28
f 57//28 56//28 58//28
f 57//29 58//29 59//29
f 59//29 58//29 60//29
f 59//30 60//30 61//30
f 61//30 60//30 62//30
f 61//31 62//31 63//31
f 63//31 62//31 64//31
f 63//32 64//32 65//32
f 65//32 64//32 66//32
f 65//33 66//33 67//33
f 67//33 66//33 68//33
f 67//34 68//34 69//34
f 69//34 68//34 70//34
f 69//35 70//35 71//35
f 71//35 70//35 72//35
f 71//36 72//36 73//36
f 73//36 72//36 74//36
f 73//37 74//37 75//37
f 75//37 74//37 76//37
f 75//38 76//38 77//38
f 77//38 76//38 78//38
f 77//39 78//39 79//39
f 79//39 78//39 80//39
f 79//40 80//40 81//40
f 81//40 80//40 82//40
f 81//41 82//41 83//41
f 83//41 82//41 84//41
f 83//42 84//42 1//42
f 1//42 84//42 2//42
f 5//43 43//43 3//43
f 3//43 43//43 45//43
f 3//43 45//43 1//43
f 1//43 45//43 47//43
f 1//43 47//43 83//43
f 83//43 47//43 49//43
f 83//43 49//43 81//43
f 81//43 49//43 51//43
f 81//43 51//43 79//43
f 79//43 51//43 53//43
f 79//43 53//43 77//43
f 77//43 53//43 55//43
f 77//43 55//43 75//43
f 75//43 55//43 57//43
f 75//43 57//43 73//43
f 73//43 57//43 59//43
f 73//43 59//43 71//43
f 71//43 59//43 61//43
f 71//43 61//43 69//43
f 69//43 61//43 63//43
f 69//43 63//43 67//43
f 67//43 63//43 65//43
f 43//43 5//43 41//43
f 41//43 5//43 7//43
f 41//43 7//43 39//43
f 39//43 7//43 9//43
f 39//43 9//43 37//43
f 37//43 9//43 11//43
f 37//43 11//43 35//43
f 35//43 11//43 13//43
f 35//43 13//43 33//43
f 33//43 13//43 15//43
f 33//43 15//43 31//43
f 31//43 15//43 17//43
f 31//43 17//43 29//43
f 29//43 17//43 19//43
f 29//43 19//43 27//43
f 27//43 19//43 21//43
f 27//43 21//43 25//43
f 25//43 21//43 23//43
f 2//44 48//44 4//44
f 4//44 48//44 46//44
f 4//44 46//44 6//44
f 6//44 46//44 44//44
f 6//44 44//44 8//44
f 8//44 44//44 42//44
f 8//44 42//44 10//44
f 10//44 42//44 40//44
f 10//44 40//44 12//44
f 12//44 40//44 38//44
f 12//44 38//44 14//44
f 14//44 38//44 36//44
f 14//44 36//44 16//44
f 16//44 36//44 34//44
f 16//44 34//44 18//44
f 18//44 34//44 32//44
f 18//44 32//44 20//44
f 20//44 32//44 30//44
f 20//44 30//44 22//44
f 22//44 30//44 28//44
f 22//44 28//44 24//44
f 24//44 28//44 26//44
f 48//44 2//44 50//44
f 50//44 2//44 84//44
f 50//44 84//44 52//44
f 52//44 84//44 82//44
f 52//44 82//44 54//44
f 54//44 82//44 80//44
f 54//44 80//44 56//44
f 56//44 80//44 78//44
f 56//44 78//44 58//44
f 58//44 78//44 76//44
f 58//44 76//44 60//44
f 60//44 76//44 74//44
f 60//44 74//44 62//44
f 62//44 74//44 72//44
f 62//44 72//44 64//44
f 64//44 72//44 70//44
f 64//44 70//44 66//44
f 66//44 70//44 68//44
#164 polygons

