# Aspose.3D Wavefront OBJ Exporter
# Copyright 2004-2024 Aspose Pty Ltd.
# File created: 04/03/2024 04:10:24

g BlockExclude

#
# object BlockExclude
#

v -0.4 -0.5 0.4
v -0.4 -0.5 -0.4
v 0.4 -0.5 0.4
v 0.4 -0.5 -0.4
v 0.4 0.5 0.4
v 0.4 0.5 -0.4
v -0.4 0.5 0.4
v -0.4 0.5 -0.4
v 0.5 0.4 0.4
v 0.5 0.4 -0.4
v 0.45 0.45 0.45
v 0.45 0.45 -0.45
v 0.5 -0.4 -0.4
v 0.5 -0.4 0.4
v 0.45 -0.45 -0.45
v 0.45 -0.45 0.45
v -0.4 0.4 0.5
v 0.4 0.4 0.5
v -0.45 0.45 0.45
v 0.4 -0.4 0.5
v -0.4 -0.4 0.5
v -0.45 -0.45 0.45
v -0.5 0.4 0.4
v -0.5 -0.4 0.4
v -0.5 -0.4 -0.4
v -0.45 -0.45 -0.45
v -0.5 0.4 -0.4
v -0.45 0.45 -0.45
v 0.4 0.4 -0.5
v -0.4 0.4 -0.5
v -0.4 -0.4 -0.5
v 0.4 -0.4 -0.5
# 32 vertices

vn 0 -1 0
vn 0 1 0
vn 0.70710677 0.70710677 0
vn 0.70710677 -0.70710677 0
vn 1 0 0
vn -3.9252311E-16 0.70710677 0.70710677
vn 0 0.70710677 0.70710677
vn 3.9098983E-16 0.70710677 0.70710677
vn 0.70710677 0 0.70710677
vn 0.70710677 -8.859029E-17 0.70710677
vn 0.70710677 -8.722736E-17 0.70710677
vn 0.70710677 -2.9899223E-16 0.70710677
vn -5.8878467E-16 -0.70710677 0.70710677
vn -1.7036593E-16 -0.70710677 0.70710677
vn -1.7445472E-16 -0.70710677 0.70710677
vn 4.906539E-16 -0.70710677 0.70710677
vn -5.551115E-16 -2.7755576E-16 1
vn -8.3266727E-16 0 1
vn -0.70710677 -3.9252311E-16 0.70710677
vn -0.70710677 -2.589562E-16 0.70710677
vn -0.70710677 -2.6168207E-16 0.70710677
vn -0.70710677 -1.9166168E-16 0.70710677
vn -0.70710677 -0.70710677 0
vn -0.70710677 0.70710677 0
vn -1 0 0
vn 4.906539E-16 0.70710677 -0.70710677
vn 4.770246E-16 0.70710677 -0.70710677
vn 4.7975046E-16 0.70710677 -0.70710677
vn -3.3732454E-16 0.70710677 -0.70710677
vn -0.70710677 -9.813078E-17 -0.70710677
vn -0.70710677 -8.859029E-17 -0.70710677
vn -0.70710677 -8.722736E-17 -0.70710677
vn -0.70710677 3.1432514E-16 -0.70710677
vn 4.661212E-16 -0.70710677 -0.70710677
vn 4.770246E-16 -0.70710677 -0.70710677
vn 4.7975046E-16 -0.70710677 -0.70710677
vn -3.219916E-16 -0.70710677 -0.70710677
vn 0.70710677 -7.3598084E-17 -0.70710677
vn 0.70710677 -8.859029E-17 -0.70710677
vn 0.70710677 -8.722736E-17 -0.70710677
vn 0.70710677 3.1432514E-16 -0.70710677
vn 6.938894E-16 -1.0408341E-16 -1
vn 6.591949E-16 -1.3877788E-16 -1
# 43 vertex normals

s 1
f 1//1 2//1 3//1
f 3//1 2//1 4//1
f 5//2 6//2 7//2
f 7//2 6//2 8//2
f 9//3 10//3 11//3
f 11//3 10//3 12//3
f 11//3 12//3 5//3
f 5//3 12//3 6//3
f 13//4 14//4 15//4
f 15//4 14//4 16//4
f 15//4 16//4 4//4
f 4//4 16//4 3//4
f 14//5 13//5 9//5
f 9//5 13//5 10//5
f 17//6 18//6 19//6
f 19//7 18//7 11//7
f 19//7 11//7 7//7
f 7//8 11//8 5//8
f 18//9 20//9 11//9
f 11//10 20//10 16//10
f 11//11 16//11 9//11
f 9//12 16//12 14//12
f 20//13 21//13 16//13
f 16//14 21//14 22//14
f 16//15 22//15 3//15
f 3//16 22//16 1//16
f 17//17 21//17 18//17
f 18//18 21//18 20//18
f 23//19 24//19 19//19
f 19//20 24//20 22//20
f 19//21 22//21 17//21
f 17//22 22//22 21//22
f 24//23 25//23 22//23
f 22//23 25//23 26//23
f 22//23 26//23 1//23
f 1//23 26//23 2//23
f 27//24 23//24 28//24
f 28//24 23//24 19//24
f 28//24 19//24 8//24
f 8//24 19//24 7//24
f 23//25 27//25 24//25
f 24//25 27//25 25//25
f 29//26 30//26 12//26
f 12//27 30//27 28//27
f 12//28 28//28 6//28
f 6//29 28//29 8//29
f 30//30 31//30 28//30
f 28//31 31//31 26//31
f 28//32 26//32 27//32
f 27//33 26//33 25//33
f 31//34 32//34 26//34
f 26//35 32//35 15//35
f 26//36 15//36 2//36
f 2//37 15//37 4//37
f 32//38 29//38 15//38
f 15//39 29//39 12//39
f 15//40 12//40 13//40
f 13//41 12//41 10//41
f 29//42 32//42 30//42
f 30//43 32//43 31//43
#60 polygons

