# Aspose.3D Wavefront OBJ Exporter
# Copyright 2004-2024 Aspose Pty Ltd.
# File created: 04/03/2024 05:13:52

g EBlock

#
# object EBlock
#

v -0.48 -0.5 0.48
v -0.48 -0.5 -0.48
v 0.48 -0.5 0.48
v 0.48 -0.5 -0.48
v 0.48 0.5 0.48
v 0.48 0.5 -0.48
v -0.48 0.5 0.48
v -0.48 0.5 -0.48
v 0.5 0.48 0.48
v 0.5 0.48 -0.48
v 0.49 0.49 0.49
v 0.49 0.49 -0.49
v 0.5 -0.48 -0.48
v 0.5 -0.48 0.48
v 0.49 -0.49 -0.49
v 0.49 -0.49 0.49
v -0.48 0.48 0.5
v 0.48 0.48 0.5
v -0.49 0.49 0.49
v 0.48 -0.48 0.5
v -0.48 -0.48 0.5
v -0.49 -0.49 0.49
v -0.5 0.48 0.48
v -0.5 -0.48 0.48
v -0.5 -0.48 -0.48
v -0.49 -0.49 -0.49
v -0.5 0.48 -0.48
v -0.49 0.49 -0.49
v 0.48 0.48 -0.5
v -0.48 0.48 -0.5
v -0.48 -0.48 -0.5
v 0.48 -0.48 -0.5
# 32 vertices

vn 0 -1 0
vn 0 1 0
vn 0.70710677 0.70710677 0
vn 0.70710677 -0.70710677 0
vn 1 0 0
vn -4.906539E-16 0.70710677 0.70710677
vn 1.1206341E-15 0.70710677 0.70710677
vn 1.1214946E-15 0.70710677 0.70710677
vn -1.2268344E-15 0.70710677 0.70710677
vn 0.70710677 -1.635513E-16 0.70710677
vn 0.70710677 -1.6036998E-16 0.70710677
vn 0.70710677 -1.6021352E-16 0.70710677
vn 0.70710677 -2.445683E-16 0.70710677
vn -6.542052E-16 -0.70710677 0.70710677
vn 0 -0.70710677 0.70710677
vn 2.4556652E-16 -0.70710677 0.70710677
vn -6.938894E-16 -4.625929E-16 1
vn -9.251858E-16 -2.3129645E-16 1
vn -0.70710677 -1.3084104E-15 0.70710677
vn -0.70710677 -1.2819819E-15 0.70710677
vn -0.70710677 -1.2817081E-15 0.70710677
vn -0.70710677 -3.2742204E-16 0.70710677
vn -0.70710677 -0.70710677 0
vn -0.70710677 0.70710677 0
vn -1 0 0
vn 4.7532096E-16 0.70710677 -0.70710677
vn 4.762206E-16 0.70710677 -0.70710677
vn 4.7688553E-16 0.70710677 -0.70710677
vn 1.816793E-15 0.70710677 -0.70710677
vn -0.70710677 -8.5608885E-17 -0.70710677
vn -0.70710677 -8.605218E-17 -0.70710677
vn -0.70710677 -8.63651E-17 -0.70710677
vn -0.70710677 2.47563E-16 -0.70710677
vn 4.9704264E-16 -0.70710677 -0.70710677
vn 4.7719846E-16 -0.70710677 -0.70710677
vn 4.7688553E-16 -0.70710677 -0.70710677
vn -1.9166168E-16 -0.70710677 -0.70710677
vn 0.70710677 -1.0733054E-16 -0.70710677
vn 0.70710677 -8.605218E-17 -0.70710677
vn 0.70710677 -8.63651E-17 -0.70710677
vn 0.70710677 2.47563E-16 -0.70710677
vn 6.7220535E-16 -1.517883E-16 -1
vn 7.029244E-16 -1.2106924E-16 -1
# 43 vertex normals

s 1
f 1//1 2//1 3//1
f 3//1 2//1 4//1
f 5//2 6//2 7//2
f 7//2 6//2 8//2
f 9//3 10//3 11//3
f 11//3 10//3 12//3
f 11//3 12//3 5//3
f 5//3 12//3 6//3
f 13//4 14//4 15//4
f 15//4 14//4 16//4
f 15//4 16//4 4//4
f 4//4 16//4 3//4
f 14//5 13//5 9//5
f 9//5 13//5 10//5
f 17//6 18//6 19//6
f 19//7 18//7 11//7
f 19//8 11//8 7//8
f 7//9 11//9 5//9
f 18//10 20//10 11//10
f 11//11 20//11 16//11
f 11//12 16//12 9//12
f 9//13 16//13 14//13
f 20//14 21//14 16//14
f 16//15 21//15 22//15
f 16//15 22//15 3//15
f 3//16 22//16 1//16
f 17//17 21//17 18//17
f 18//18 21//18 20//18
f 23//19 24//19 19//19
f 19//20 24//20 22//20
f 19//21 22//21 17//21
f 17//22 22//22 21//22
f 24//23 25//23 22//23
f 22//23 25//23 26//23
f 22//23 26//23 1//23
f 1//23 26//23 2//23
f 27//24 23//24 28//24
f 28//24 23//24 19//24
f 28//24 19//24 8//24
f 8//24 19//24 7//24
f 23//25 27//25 24//25
f 24//25 27//25 25//25
f 29//26 30//26 12//26
f 12//27 30//27 28//27
f 12//28 28//28 6//28
f 6//29 28//29 8//29
f 30//30 31//30 28//30
f 28//31 31//31 26//31
f 28//32 26//32 27//32
f 27//33 26//33 25//33
f 31//34 32//34 26//34
f 26//35 32//35 15//35
f 26//36 15//36 2//36
f 2//37 15//37 4//37
f 32//38 29//38 15//38
f 15//39 29//39 12//39
f 15//40 12//40 13//40
f 13//41 12//41 10//41
f 29//42 32//42 30//42
f 30//43 32//43 31//43
#60 polygons

