# Aspose.3D Wavefront OBJ Exporter
# Copyright 2004-2024 Aspose Pty Ltd.
# File created: 04/03/2024 07:32:21

g HeptagonalPrism

#
# object HeptagonalPrism
#

v 0.78183 0.62349 -0.50000
v 0.00000 1.00000 -0.50000
v 0.78183 0.62349 0.50000
v 0.00000 1.00000 0.50000
v 0.97493 -0.22252 -0.50000
v 0.97493 -0.22252 0.50000
v 0.43388 -0.90097 -0.50000
v 0.43388 -0.90097 0.50000
v -0.43388 -0.90097 -0.50000
v -0.43388 -0.90097 0.50000
v -0.97493 -0.22252 -0.50000
v -0.97493 -0.22252 0.50000
v -0.78183 0.62349 -0.50000
v -0.78183 0.62349 0.50000
# 14 vertices

vn 0.43388373 0.90096885 0
vn 0.9749279 0.22252093 0
vn 0.7818315 -0.6234898 0
vn 0 -1 0
vn -0.7818315 -0.6234898 0
vn -0.9749279 0.22252093 0
vn -0.43388373 0.90096885 0
vn 0 0 1
vn 0 0 -1
# 9 vertex normals

s 1
f 1//1 2//1 3//1
f 3//1 2//1 4//1
f 5//2 1//2 6//2
f 6//2 1//2 3//2
f 7//3 5//3 8//3
f 8//3 5//3 6//3
f 9//4 7//4 10//4
f 10//4 7//4 8//4
f 11//5 9//5 12//5
f 12//5 9//5 10//5
f 13//6 11//6 14//6
f 14//6 11//6 12//6
f 2//7 13//7 4//7
f 4//7 13//7 14//7
f 4//8 14//8 3//8
f 3//8 14//8 6//8
f 6//8 14//8 12//8
f 6//8 12//8 8//8
f 8//8 12//8 10//8
f 2//9 1//9 13//9
f 13//9 1//9 11//9
f 11//9 1//9 5//9
f 11//9 5//9 9//9
f 9//9 5//9 7//9
#24 polygons

