# Aspose.3D Wavefront OBJ Exporter
# Copyright 2004-2024 Aspose Pty Ltd.
# File created: 04/03/2024 06:19:48

g obj_10867948

#
# object obj_10867948
#

v 1.8660264 0.500001 1E-06
v 1.7699078 0.4445069 1E-06
v 1.8660264 0.64092064 1E-06
v 1.2390833 0.099032134 1E-06
v 0.7609187 0.099032134 1E-06
v 1.000001 9.999999E-07 1E-06
v 1.7071078 0.2928942 1E-06
v 1.607492 0.251632 1E-06
v 1.507214 0.19098401 1E-06
v 1.4338847 0.099032134 1E-06
v 1.5877862 0.19098401 1E-06
v 0.5661173 0.099032134 1E-06
v 0.49278808 0.19098401 1E-06
v 0.2300942 0.4445069 1E-06
v 0.1339756 0.64092064 1E-06
v 0.1339756 0.500001 1E-06
v 0.41221574 0.19098401 1E-06
v 0.39251003 0.251632 1E-06
v 0.2928942 0.2928942 1E-06
v 0.025073089 0.77748007 1E-06
v 0.04891115 0.88192147 1E-06
v 1.9510908 0.88192147 1E-06
v 1.9749289 0.77748007 1E-06
v 1.0000003E-06 1.000001 1E-06
v 3.8088597E-06 1.0000077 1E-06
v 1.9999982 1.0000077 1E-06
v 2.000001 1.000001 1E-06
v 9.999999E-07 1.0000106 1E-06
v 1.9999943 1.0000174 1E-06
v 2.000001 1.0000106 1E-06
v 7.781187E-06 1.0000174 1E-06
v 0.083696954 1.2020609 1E-06
v 1.9163051 1.2020609 1E-06
v 1.8660264 1.3707967 1E-06
v 1.9510576 1.309018 1E-06
v 0.048944484 1.309018 1E-06
v 0.1339756 1.3707967 1E-06
v 0.1339756 1.500001 1E-06
v 0.19848454 1.5372453 1E-06
v 0.9999846 1.9999943 1E-06
v 1.0000174 1.9999943 1E-06
v 1.000001 2.0000105 1E-06
v 0.21816951 1.6234908 1E-06
v 0.2682484 1.6476076 1E-06
v 0.2928942 1.7071078 1E-06
v 1.7071078 1.7071078 1E-06
v 1.7317536 1.6476076 1E-06
v 1.8015175 1.5372453 1E-06
v 1.8660264 1.500001 1E-06
v 1.7818325 1.6234908 1E-06
v 0.1339756 0.500001 1.000001
v 0.2300942 0.4445069 1.000001
v 0.1339756 0.64092064 1.000001
v 0.7609187 0.099032134 1.000001
v 1.2390833 0.099032134 1.000001
v 1.000001 9.999999E-07 1.000001
v 0.2928942 0.2928942 1.000001
v 0.39251003 0.251632 1.000001
v 0.49278808 0.19098401 1.000001
v 0.5661173 0.099032134 1.000001
v 0.41221574 0.19098401 1.000001
v 1.4338847 0.099032134 1.000001
v 1.507214 0.19098401 1.000001
v 1.7699078 0.4445069 1.000001
v 1.8660264 0.64092064 1.000001
v 1.8660264 0.500001 1.000001
v 1.5877862 0.19098401 1.000001
v 1.607492 0.251632 1.000001
v 1.7071078 0.2928942 1.000001
v 1.9749289 0.77748007 1.000001
v 1.9510908 0.88192147 1.000001
v 0.04891115 0.88192147 1.000001
v 0.025073089 0.77748007 1.000001
v 2.000001 1.000001 1.000001
v 1.9999982 1.0000077 1.000001
v 3.8088597E-06 1.0000077 1.000001
v 1.0000003E-06 1.000001 1.000001
v 9.999999E-07 1.0000106 1.000001
v 2.000001 1.0000106 1.000001
v 7.781187E-06 1.0000174 1.000001
v 1.9999943 1.0000174 1.000001
v 0.083696954 1.2020609 1.000001
v 1.9163051 1.2020609 1.000001
v 0.1339756 1.3707967 1.000001
v 1.8660264 1.3707967 1.000001
v 0.9999846 1.9999943 1.000001
v 1.0000174 1.9999943 1.000001
v 1.000001 2.0000105 1.000001
v 1.9510576 1.309018 1.000001
v 1.8660264 1.500001 1.000001
v 1.8015175 1.5372453 1.000001
v 1.7818325 1.6234908 1.000001
v 1.7317536 1.6476076 1.000001
v 1.7071078 1.7071078 1.000001
v 0.2928942 1.7071078 1.000001
v 0.2682484 1.6476076 1.000001
v 0.19848454 1.5372453 1.000001
v 0.1339756 1.500001 1.000001
v 0.21816951 1.6234908 1.000001
v 0.048944484 1.309018 1.000001
# 100 vertices

vn 0 0 -1
vn 0 0 1
vn 0.70710677 0.70710677 0
vn -0.70710677 0.70710677 0
vn -0.70710677 -0.70710677 0
vn 0.70710677 -0.70710677 0
vn 0.38268343 0.9238795 0
vn -0.38268343 0.9238795 0
vn 0.92387956 0.38268343 0
vn -0.9238795 0.38268346 0
vn 0.9238795 -0.38268343 0
vn 0.9238795 0.38268343 0
vn 0.38268343 -0.9238795 0
vn -0.9238795 0.38268343 0
vn -0.38268343 -0.9238795 0
vn -0.9238795 -0.38268343 0
vn 0.5 -0.8660254 0
vn 0.95105654 -0.309017 0
vn 0 -1 0
vn -0.43388373 0.90096885 0
vn -0.9749279 0.22252093 0
vn -0.95105654 -0.309017 0
vn 0.7818315 -0.6234898 0
vn -0.7818315 -0.6234898 0
vn 0.9749279 0.22252093 0
vn 0.43388373 0.90096885 0
vn -0.5 -0.8660254 0
vn 1 0 0
vn -1 0 0
vn -0.5 0.8660254 0
vn 0.5 0.8660254 0
vn -0.58778524 0.809017 0
vn 0.58778524 0.809017 0
# 33 vertex normals

s 1
f 1//1 2//1 3//1
f 3//1 2//1 4//1
f 3//1 4//1 5//1
f 5//1 4//1 6//1
f 7//1 8//1 2//1
f 2//1 8//1 9//1
f 2//1 9//1 4//1
f 4//1 9//1 10//1
f 8//1 11//1 9//1
f 12//1 13//1 5//1
f 5//1 13//1 14//1
f 5//1 14//1 15//1
f 15//1 14//1 16//1
f 17//1 18//1 13//1
f 13//1 18//1 14//1
f 18//1 19//1 14//1
f 20//1 21//1 15//1
f 15//1 21//1 22//1
f 15//1 22//1 3//1
f 3//1 22//1 23//1
f 24//1 25//1 21//1
f 21//1 25//1 26//1
f 21//1 26//1 22//1
f 22//1 26//1 27//1
f 25//1 28//1 26//1
f 26//1 28//1 29//1
f 26//1 29//1 30//1
f 28//1 31//1 29//1
f 29//1 31//1 32//1
f 29//1 32//1 33//1
f 33//1 32//1 34//1
f 33//1 34//1 35//1
f 36//1 37//1 32//1
f 32//1 37//1 34//1
f 38//1 39//1 37//1
f 37//1 39//1 40//1
f 37//1 40//1 41//1
f 41//1 40//1 42//1
f 43//1 44//1 39//1
f 39//1 44//1 40//1
f 44//1 45//1 40//1
f 46//1 47//1 41//1
f 41//1 47//1 48//1
f 41//1 48//1 34//1
f 34//1 48//1 49//1
f 47//1 50//1 48//1
f 15//1 3//1 5//1
f 41//1 34//1 37//1
f 51//2 52//2 53//2
f 53//2 52//2 54//2
f 53//2 54//2 55//2
f 55//2 54//2 56//2
f 57//2 58//2 52//2
f 52//2 58//2 59//2
f 52//2 59//2 54//2
f 54//2 59//2 60//2
f 58//2 61//2 59//2
f 62//2 63//2 55//2
f 55//2 63//2 64//2
f 55//2 64//2 65//2
f 65//2 64//2 66//2
f 67//2 68//2 63//2
f 63//2 68//2 64//2
f 68//2 69//2 64//2
f 70//2 71//2 65//2
f 65//2 71//2 72//2
f 65//2 72//2 53//2
f 53//2 72//2 73//2
f 74//2 75//2 71//2
f 71//2 75//2 76//2
f 71//2 76//2 72//2
f 72//2 76//2 77//2
f 76//2 75//2 78//2
f 78//2 75//2 79//2
f 78//2 79//2 80//2
f 80//2 79//2 81//2
f 80//2 81//2 82//2
f 82//2 81//2 83//2
f 82//2 83//2 84//2
f 84//2 83//2 85//2
f 84//2 85//2 86//2
f 86//2 85//2 87//2
f 86//2 87//2 88//2
f 83//2 89//2 85//2
f 90//2 91//2 85//2
f 85//2 91//2 87//2
f 92//2 93//2 91//2
f 91//2 93//2 87//2
f 93//2 94//2 87//2
f 95//2 96//2 86//2
f 86//2 96//2 97//2
f 86//2 97//2 84//2
f 84//2 97//2 98//2
f 96//2 99//2 97//2
f 84//2 100//2 82//2
f 65//2 53//2 55//2
f 81//3 79//3 29//3
f 29//3 79//3 30//3
f 31//4 28//4 80//4
f 80//4 28//4 78//4
f 76//5 78//5 25//5
f 25//5 78//5 28//5
f 86//4 88//4 40//4
f 40//4 88//4 42//4
f 41//3 42//3 87//3
f 87//3 42//3 88//3
f 26//6 30//6 75//6
f 75//6 30//6 79//6
f 87//7 94//7 41//7
f 41//7 94//7 46//7
f 40//8 45//8 86//8
f 86//8 45//8 95//8
f 75//9 74//9 26//9
f 26//9 74//9 27//9
f 25//10 24//10 76//10
f 76//10 24//10 77//10
f 22//11 27//11 71//11
f 71//11 27//11 74//11
f 47//12 46//12 93//12
f 93//12 46//12 94//12
f 55//13 56//13 4//13
f 4//13 56//13 6//13
f 8//13 7//13 68//13
f 68//13 7//13 69//13
f 80//14 82//14 31//14
f 31//14 82//14 32//14
f 58//15 57//15 18//15
f 18//15 57//15 19//15
f 5//15 6//15 54//15
f 54//15 6//15 56//15
f 14//16 19//16 52//16
f 52//16 19//16 57//16
f 29//12 33//12 81//12
f 81//12 33//12 83//12
f 64//11 69//11 2//11
f 2//11 69//11 7//11
f 72//16 77//16 21//16
f 21//16 77//16 24//16
f 96//14 95//14 44//14
f 44//14 95//14 45//14
f 2//17 1//17 64//17
f 64//17 1//17 66//17
f 33//18 35//18 83//18
f 83//18 35//18 89//18
f 4//19 10//19 55//19
f 55//19 10//19 62//19
f 44//20 43//20 96//20
f 96//20 43//20 99//20
f 21//21 20//21 72//21
f 72//21 20//21 73//21
f 18//22 17//22 58//22
f 58//22 17//22 61//22
f 54//19 60//19 5//19
f 5//19 60//19 12//19
f 3//23 23//23 65//23
f 65//23 23//23 70//23
f 53//24 73//24 15//24
f 15//24 73//24 20//24
f 48//25 50//25 91//25
f 91//25 50//25 92//25
f 97//21 99//21 39//21
f 39//21 99//21 43//21
f 93//26 92//26 47//26
f 47//26 92//26 50//26
f 71//25 70//25 22//25
f 22//25 70//25 23//25
f 63//23 62//23 9//23
f 9//23 62//23 10//23
f 13//24 12//24 59//24
f 59//24 12//24 60//24
f 9//19 11//19 63//19
f 63//19 11//19 67//19
f 59//19 61//19 13//19
f 13//19 61//19 17//19
f 52//27 51//27 14//27
f 14//27 51//27 16//27
f 82//22 100//22 32//22
f 32//22 100//22 36//22
f 65//28 66//28 3//28
f 3//28 66//28 1//28
f 34//28 49//28 85//28
f 85//28 49//28 90//28
f 15//29 16//29 53//29
f 53//29 16//29 51//29
f 84//29 98//29 37//29
f 37//29 98//29 38//29
f 39//30 38//30 97//30
f 97//30 38//30 98//30
f 91//31 90//31 48//31
f 48//31 90//31 49//31
f 68//18 67//18 8//18
f 8//18 67//18 11//18
f 37//32 36//32 84//32
f 84//32 36//32 100//32
f 85//33 89//33 34//33
f 34//33 89//33 35//33
#196 polygons

