# Aspose.3D Wavefront OBJ Exporter
# Copyright 2004-2024 Aspose Pty Ltd.
# File created: 04/03/2024 07:31:05

g TrigonalPrism

#
# object TrigonalPrism
#

v 0.86603 -0.50000 -0.50000
v 0.00000 1.00000 -0.50000
v 0.86603 -0.50000 0.50000
v 0.00000 1.00000 0.50000
v -0.86603 -0.50000 -0.50000
v -0.86603 -0.50000 0.50000
# 6 vertices

vn 0.8660254 0.5 0
vn 0 -1 0
vn -0.8660254 0.5 0
vn 0 0 1
vn 0 0 -1
# 5 vertex normals

s 1
f 1//1 2//1 3//1
f 3//1 2//1 4//1
f 5//2 1//2 6//2
f 6//2 1//2 3//2
f 2//3 5//3 4//3
f 4//3 5//3 6//3
f 4//4 6//4 3//4
f 5//5 2//5 1//5
#8 polygons

